<svg xmlns="http://www.w3.org/2000/svg" version="1.1" xmlns:xlink="http://www.w3.org/1999/xlink" xmlns:svgjs="http://svgjs.dev/svgjs" width="1500" height="1500" viewBox="0 0 1500 1500"><rect width="1500" height="1500" fill="#ffffff"></rect><g transform="matrix(0.6666666666666666,0,0,0.6666666666666666,249.39393939393938,438.5856950067477)"><svg viewBox="0 0 396 247" data-background-color="#ffffff" preserveAspectRatio="xMidYMid meet" height="935" width="1500" xmlns="http://www.w3.org/2000/svg" xmlns:xlink="http://www.w3.org/1999/xlink"><g id="tight-bounds" transform="matrix(1,0,0,1,0.2400000000000091,-0.09999999999999432)"><svg viewBox="0 0 395.52 247.2" height="247.2" width="395.52"><g><svg></svg></g><g><svg viewBox="0 0 395.52 247.2" height="247.2" width="395.52"><mask id="ac68f443-f880-4b78-abab-cecd0a7168e3"><rect width="640" height="400" fill="white"></rect><g transform="matrix(1,0,0,1,39.55199999999999,82.53772131595734)"><svg viewBox="0 0 316.416 82.1245573680853" height="82.1245573680853" width="316.416"><g><svg viewBox="0 0 316.416 82.1245573680853" height="82.1245573680853" width="316.416"><g><svg viewBox="0 0 316.416 82.1245573680853" height="82.1245573680853" width="316.416"><g><svg viewBox="0 0 316.416 82.1245573680853" height="82.1245573680853" width="316.416"><g id="SvgjsG1350"><svg viewBox="0 0 316.416 82.1245573680853" height="82.1245573680853" width="316.416" id="SvgjsSvg1349"><g><svg viewBox="0 0 316.416 82.1245573680853" height="82.1245573680853" width="316.416"><g transform="matrix(1,0,0,1,0,0)"><svg width="316.416" viewBox="2.98 -36.16 140.3 37.16" height="82.1245573680853" data-palette-color="#912a66"><path d="M8.47-24.12L8.47 0 3.98 0 3.98-35.16 10.28-35.16 31.64-11.01 31.64-35.16 36.11-35.16 36.11 0 29.81 0 8.47-24.12ZM53.76-35.16L53.76 0 44.06 0 44.06-35.16 53.76-35.16ZM77.97-30.66L77.97 0 68.28 0 68.28-30.66 58.71-30.66 58.71-35.16 87.54-35.16 87.54-30.66 77.97-30.66ZM102.19-35.16L102.19 0 92.5 0 92.5-35.16 102.19-35.16ZM114.64-24.12L114.64 0 110.15 0 110.15-35.16 116.45-35.16 137.81-11.01 137.81-35.16 142.28-35.16 142.28 0 135.98 0 114.64-24.12Z" opacity="1" transform="matrix(1,0,0,1,0,0)" fill="black" class="wordmark-text-0" id="SvgjsPath1348" stroke-width="1" stroke="black" stroke-linejoin="round"></path></svg></g></svg></g></svg></g></svg></g><g></g></svg></g></svg></g></svg></g></mask><g transform="matrix(1,0,0,1,39.55199999999999,82.53772131595734)"><svg viewBox="0 0 316.416 82.1245573680853" height="82.1245573680853" width="316.416"><g><svg viewBox="0 0 316.416 82.1245573680853" height="82.1245573680853" width="316.416"><g><svg viewBox="0 0 316.416 82.1245573680853" height="82.1245573680853" width="316.416"><g><svg viewBox="0 0 316.416 82.1245573680853" height="82.1245573680853" width="316.416"><g id="textblocktransform"><svg viewBox="0 0 316.416 82.1245573680853" height="82.1245573680853" width="316.416" id="textblock"><g><svg viewBox="0 0 316.416 82.1245573680853" height="82.1245573680853" width="316.416"><g transform="matrix(1,0,0,1,0,0)"><svg width="316.416" viewBox="2.98 -36.16 140.3 37.16" height="82.1245573680853" data-palette-color="#912a66"><path d="M8.47-24.12L8.47 0 3.98 0 3.98-35.16 10.28-35.16 31.64-11.01 31.64-35.16 36.11-35.16 36.11 0 29.81 0 8.47-24.12ZM53.76-35.16L53.76 0 44.06 0 44.06-35.16 53.76-35.16ZM77.97-30.66L77.97 0 68.28 0 68.28-30.66 58.71-30.66 58.71-35.16 87.54-35.16 87.54-30.66 77.97-30.66ZM102.19-35.16L102.19 0 92.5 0 92.5-35.16 102.19-35.16ZM114.64-24.12L114.64 0 110.15 0 110.15-35.16 116.45-35.16 137.81-11.01 137.81-35.16 142.28-35.16 142.28 0 135.98 0 114.64-24.12Z" opacity="1" transform="matrix(1,0,0,1,0,0)" fill="#912a66" class="wordmark-text-0" data-fill-palette-color="primary" id="text-0"></path></svg></g></svg></g></svg></g></svg></g><g></g></svg></g></svg></g></svg></g><g mask="url(#ac68f443-f880-4b78-abab-cecd0a7168e3)"><g transform="matrix(2.7214206437291897, 0, 0, 2.7214206437291897, 105.85592739920546, 1)"><svg xmlns="http://www.w3.org/2000/svg" xmlns:xlink="http://www.w3.org/1999/xlink" version="1.1" x="0" y="0" viewBox="16.22937625884344 4.9000000000000075 67.54124748231311 90.1" enable-background="new 0 0 100 100" xml:space="preserve" height="90.1" width="67.54124748231311" class="icon-none" data-fill-palette-color="accent" id="none"><path d="M63 50.6l20.3 6.3c0.8 0.2 0.5 1.4-0.3 1.3l-21-3.1c-0.6-0.1-1 0.7-0.5 1.1L77 70.7c0.6 0.5-0.1 1.5-0.8 1L58.6 59.8c-0.5-0.4-1.2 0.2-1 0.8l7.7 19.8c0.3 0.7-0.8 1.2-1.2 0.6L53.5 62.5c-0.3-0.5-1.2-0.4-1.2 0.3l-1.6 31.6c-0.1 0.8-1.2 0.8-1.3 0l-1.6-31.6c0-0.6-0.9-0.8-1.2-0.3L35.8 80.9c-0.4 0.7-1.5 0.2-1.2-0.6l7.7-19.8c0.2-0.6-0.4-1.1-1-0.8L23.8 71.7c-0.7 0.4-1.4-0.5-0.8-1l15.5-14.5c0.5-0.4 0.1-1.2-0.5-1.1l-21 3.1c-0.8 0.1-1-1-0.3-1.3L37 50.6c0.6-0.2 0.6-1 0-1.2l-20.3-6.3c-0.8-0.2-0.5-1.4 0.3-1.3l21 3.1c0.6 0.1 1-0.7 0.5-1.1L23 29.3c-0.6-0.5 0.1-1.5 0.8-1l17.6 11.9c0.5 0.4 1.2-0.2 1-0.8l-7.7-19.8c-0.3-0.7 0.8-1.2 1.2-0.6l10.7 18.4c0.3 0.5 1.2 0.4 1.2-0.3l1.6-31.6c0.1-0.8 1.2-0.8 1.3 0l1.6 31.6c0 0.6 0.9 0.8 1.2 0.3l10.7-18.4c0.4-0.7 1.5-0.2 1.2 0.6l-7.7 19.8c-0.2 0.6 0.4 1.1 1 0.8l17.6-11.9c0.7-0.4 1.4 0.5 0.8 1L61.4 43.8C61 44.2 61.3 45 62 44.9l21-3.1c0.8-0.1 1 1 0.3 1.3L63 49.4C62.4 49.6 62.4 50.4 63 50.6z" fill="#fbd3e9" data-fill-palette-color="accent"></path></svg></g></g></svg></g><defs></defs></svg><rect width="395.52" height="247.2" fill="none" stroke="none" visibility="hidden"></rect></g></svg></g></svg>