<svg xmlns="http://www.w3.org/2000/svg" version="1.1" xmlns:xlink="http://www.w3.org/1999/xlink" xmlns:svgjs="http://svgjs.dev/svgjs" width="2000" height="1500" viewBox="0 0 2000 1500"><rect width="2000" height="1500" fill="#000000"></rect><g transform="matrix(0.43535045711798,0,0,0.43535045711798,565.4021399393396,250.40485829959522)"><svg viewBox="0 0 215 247" data-background-color="#102e44" preserveAspectRatio="xMidYMid meet" height="2297" width="2000" xmlns="http://www.w3.org/2000/svg" xmlns:xlink="http://www.w3.org/1999/xlink"><g id="tight-bounds" transform="matrix(1,0,0,1,-0.1858369098712842,-0.09999999999999432)"><svg viewBox="0 0 215.37167381974248 247.2" height="247.2" width="215.37167381974248"><g><svg viewBox="0 0 215.37167381974248 247.2" height="247.2" width="215.37167381974248"><g><svg viewBox="0 0 215.37167381974248 247.2" height="247.2" width="215.37167381974248"><g id="textblocktransform"><svg viewBox="0 0 215.37167381974248 247.2" height="247.2" width="215.37167381974248" id="textblock"><g><svg viewBox="0 0 215.37167381974248 247.2" height="247.2" width="215.37167381974248"><g transform="matrix(1,0,0,1,0,0)"><svg width="215.37167381974248" viewBox="0.35 -34.4 30.449999999999996 34.949999999999996" height="247.2" data-palette-color="#ffffff"><path d="M25.85-33.7L30.6-34.35 30.6-33.6 21.25-23.3Q20.5-22.45 19.78-21.5 19.05-20.55 18.53-19.88 18-19.2 17.9-19L17.9-19Q17.9-18.8 18.53-17.73 19.15-16.65 20.1-15.08 21.05-13.5 22.13-11.8 23.2-10.1 24.15-8.68 25.1-7.25 25.7-6.55L25.7-6.55 28.7-2.95Q28.95-2.7 29.6-2.3 30.25-1.9 30.55-1.8L30.55-1.8 30.8-1.6 30.8-0.8 25.3 0.55 24.6 0.25Q23.95-0.45 23.38-1.25 22.8-2.05 22.3-2.85L22.3-2.85 15.15-14.8 14.55-14.8Q13.75-13.85 12.43-12.05 11.1-10.25 9.65-8.13 8.2-6 6.98-4 5.75-2 5.05-0.55L5.05-0.55 0.35 0 0.35-0.8 13.9-17.25Q13.85-17.25 13.3-18.1 12.75-18.95 11.93-20.38 11.1-21.8 10.15-23.43 9.2-25.05 8.28-26.65 7.35-28.25 6.65-29.5L6.65-29.5Q5.85-30.95 4.4-31.5 2.95-32.05 1.4-32.45L1.4-32.45 1.4-33.7 1.75-34Q2.4-34.05 3.7-34.1 5-34.15 6.48-34.25 7.95-34.35 9.05-34.4L9.05-34.4 16.4-21.1 16.85-21.1Q17.35-21.6 18.35-22.93 19.35-24.25 20.58-25.95 21.8-27.65 22.95-29.3 24.1-30.95 24.9-32.18 25.7-33.4 25.85-33.7L25.85-33.7Z" opacity="1" transform="matrix(1,0,0,1,0,0)" fill="#ffffff" class="wordmark-text-0" data-fill-palette-color="primary" id="text-0"></path></svg></g></svg></g></svg></g></svg></g><g></g></svg></g><defs></defs></svg><rect width="215.37167381974248" height="247.2" fill="none" stroke="none" visibility="hidden"></rect></g></svg></g></svg>