<svg xmlns="http://www.w3.org/2000/svg" version="1.1" xmlns:xlink="http://www.w3.org/1999/xlink" xmlns:svgjs="http://svgjs.dev/svgjs" width="1500" height="935" viewBox="0 0 1500 935"><g transform="matrix(1,0,0,1,-0.9090909090909918,0.3785425101214628)"><svg viewBox="0 0 396 247" data-background-color="#0c1d36" preserveAspectRatio="xMidYMid meet" height="935" width="1500" xmlns="http://www.w3.org/2000/svg" xmlns:xlink="http://www.w3.org/1999/xlink"><g id="tight-bounds" transform="matrix(1,0,0,1,0.2400000000000091,-0.09999999999999432)"><svg viewBox="0 0 395.52 247.2" height="247.2" width="395.52"><g><svg></svg></g><g><svg viewBox="0 0 395.52 247.2" height="247.2" width="395.52"><g transform="matrix(1,0,0,1,125.52773562231759,47.215199999999996)"><svg viewBox="0 0 144.4645287553648 152.7696" height="152.7696" width="144.4645287553648"><g><svg viewBox="0 0 144.4645287553648 152.7696" height="152.7696" width="144.4645287553648"><g><svg viewBox="0 0 144.4645287553648 152.7696" height="152.7696" width="144.4645287553648"><g><svg viewBox="0 0 144.4645287553648 152.7696" height="152.7696" width="144.4645287553648"><g id="textblocktransform"><svg viewBox="0 0 144.4645287553648 152.7696" height="152.7696" width="144.4645287553648" id="textblock"><g><svg viewBox="0 0 144.4645287553648 152.7696" height="152.7696" width="144.4645287553648"><g transform="matrix(1,0,0,1,0,0)"><svg width="144.4645287553648" viewBox="0.1 -34.7 33.05 34.95" height="152.7696" data-palette-color="#f9cc0b"><path d="M28.85-33.9L32.85-34.7 33.15-34.3Q32.65-25.8 32.52-17.15 32.4-8.5 32.4 0L32.4 0 30.6 0Q29.75-1 29.08-1.8 28.4-2.6 27.25-4L27.25-4 19.3-13.9Q15.5-18.65 12.48-22.15 9.45-25.65 7.6-27.75L7.6-27.75Q7.5-27.9 7.35-28.05 7.2-28.2 7.05-28.2L7.05-28.2Q6.8-28.2 6.75-27.88 6.7-27.55 6.7-27.35L6.7-27.35Q6.7-24.95 6.8-21.8 6.9-18.65 7.08-15.15 7.25-11.65 7.48-8.08 7.7-4.5 7.9-1.25L7.9-1.25 4.4 0.25 3.95-0.2Q4.25-6.15 4.42-12.1 4.6-18.05 4.6-23.95L4.6-23.95Q4.6-25.55 4.58-27.18 4.55-28.8 4.55-30.4L4.55-30.4Q4.55-30.95 4.48-31.25 4.4-31.55 3.55-31.9 2.7-32.25 0.3-32.8L0.3-32.8 0.1-34.15 0.5-34.5 8.6-34.5Q11.1-31.2 13.8-27.65 16.5-24.1 19.2-20.63 21.9-17.15 24.45-14.08 27-11 29.2-8.65L29.2-8.65Q29.3-8.55 29.45-8.4 29.6-8.25 29.75-8.25L29.75-8.25Q29.95-8.25 30-8.43 30.05-8.6 30.05-8.65L30.05-8.65Q30.05-10.55 30-12.63 29.95-14.7 29.83-17.48 29.7-20.25 29.48-24.23 29.25-28.2 28.85-33.9L28.85-33.9Z" opacity="1" transform="matrix(1,0,0,1,0,0)" fill="#f9cc0b" class="wordmark-text-0" data-fill-palette-color="primary" id="text-0"></path></svg></g></svg></g></svg></g></svg></g></svg></g></svg></g></svg></g><path d="M307.829 41.215L307.829 0 60.629 0 60.629 247.2 307.829 247.2 307.829 205.985 294.052 205.985 294.052 233.423 74.406 233.423 74.406 13.777 294.052 13.777 294.052 41.215Z" fill="#f9cc0b" stroke="transparent" data-fill-palette-color="tertiary"></path></svg></g><defs></defs></svg><rect width="395.52" height="247.2" fill="none" stroke="none" visibility="hidden"></rect></g></svg></g></svg>