<svg xmlns="http://www.w3.org/2000/svg" viewBox="0 0 168 168" id="resume"><path fill="#2d4356" d="M61.617 48.27a9 9 0 1 0-11.234 0C44.626 48.49 40 53.772 40 60.25v8a2 2 0 0 0 4 0v-8c0-4.411 3.028-8 6.75-8h10.5c3.722 0 6.75 3.589 6.75 8v8a2 2 0 0 0 4 0v-8c0-6.479-4.626-11.76-10.383-11.98ZM56 46.25a5 5 0 1 1 5-5 5.006 5.006 0 0 1-5 5Z"></path><path fill="#0bceb2" d="M126 50.25H78a2 2 0 0 0 0 4h48a2 2 0 0 0 0-4Z"></path><path fill="#2d4356" d="M126 58.25h-24a2 2 0 0 0 0 4h24a2 2 0 0 0 0-4Z"></path><path fill="#0bceb2" d="M126 66.25h-24a2 2 0 0 0 0 4h24a2 2 0 0 0 0-4zm0 66H78a2 2 0 0 0 0 4h48a2 2 0 0 0 0-4z"></path><path fill="#2d4356" d="M126 140.25h-24a2 2 0 0 0 0 4h24a2 2 0 0 0 0-4Z"></path><path fill="#0bceb2" d="M42 86.25h24a2 2 0 0 0 0-4H42a2 2 0 0 0 0 4Z"></path><path fill="#2d4356" d="M42 110.25h24a2 2 0 0 0 0-4H42a2 2 0 0 0 0 4zm0-16h84a2 2 0 0 0 0-4H42a2 2 0 0 0 0 4z"></path><path fill="#0bceb2" d="M42 102.25h84a2 2 0 0 0 0-4H42a2 2 0 0 0 0 4zm0 16h84a2 2 0 0 0 0-4H42a2 2 0 0 0 0 4z"></path><path fill="#2d4356" d="M42 126.25h60a2 2 0 0 0 0-4H42a2 2 0 0 0 0 4Z"></path><circle cx="2" cy="150.25" r="2" fill="#2d4356"></circle><path fill="#2d4356" d="M11 148.25H8a2 2 0 0 0 0 4h3a2 2 0 0 0 0-4zm149 0h-3a2 2 0 0 0 0 4h3a2 2 0 0 0 0-4z"></path><circle cx="166" cy="150.25" r="2" fill="#2d4356"></circle><path fill="#0bceb2" d="M118.154 156.25h-8.308a2.006 2.006 0 0 0 0 4h8.308a2.006 2.006 0 0 0 0-4zm-60 0h-8.308a2.006 2.006 0 0 0 0 4h8.308a2.006 2.006 0 0 0 0-4zm45.846 0H64a2 2 0 0 0 0 4h15.94v2H72a2 2 0 0 0 0 4h25a2 2 0 0 0 0-4h-8.94v-2H104a2 2 0 0 0 0-4z"></path><path fill="#2d4356" d="M150.721 148.25H135.65a5.96 5.96 0 0 0 .35-2v-116a6.007 6.007 0 0 0-6-6H38a6.007 6.007 0 0 0-6 6v116a5.96 5.96 0 0 0 .35 2H17.279a2.017 2.017 0 1 0 0 4H150.72a2.017 2.017 0 1 0 0-4zM36 30.25a2.003 2.003 0 0 1 2-2h92a2.003 2.003 0 0 1 2 2v44H36zm2 118a2.003 2.003 0 0 1-2-2v-68h96v68a2.003 2.003 0 0 1-2 2zm30.305-140a3 3 0 1 0-3-3 3.003 3.003 0 0 0 3 3zm0-4.5a1.5 1.5 0 1 1-1.5 1.5 1.501 1.501 0 0 1 1.5-1.5zM164 44.25a2 2 0 1 0 2 2 2.002 2.002 0 0 0-2-2zm0 3a1 1 0 1 1 1-1 1.001 1.001 0 0 1-1 1zm-19.998 13a2 2 0 1 0 2 2 2.002 2.002 0 0 0-2-2zm0 3a1 1 0 1 1 1-1 1.001 1.001 0 0 1-1 1zm12.303-61.5a2 2 0 1 0 2 2 2.002 2.002 0 0 0-2-2zm0 3a1 1 0 1 1 1-1 1.001 1.001 0 0 1-1 1zM26 39.105a2 2 0 1 0-2 2 2.002 2.002 0 0 0 2-2zm-3 0a1 1 0 1 1 1 1 1.001 1.001 0 0 1-1-1z"></path><path fill="#0bceb2" d="m10.888 69.261 1.487-1.955-.939-.532-.955 2.19h-.031l-.97-2.175-.955.548 1.471 1.909v.031l-2.301-.297v1.064l2.316-.297v.031l-1.486 1.908.891.564 1.018-2.206h.031l.939 2.19.986-.563-1.502-1.878v-.031l2.362.282V68.98l-2.362.312v-.031zM7.43 8.403l-.856 1.099.513.325.586-1.271h.018l.541 1.262.567-.325-.865-1.081v-.018l1.361.162v-.612l-1.361.18v-.018l.857-1.126-.541-.307-.55 1.261h-.018l-.558-1.252-.55.315.847 1.1v.018l-1.325-.171v.612l1.334-.171v.018zM148.727 26.086v-1.044l-2.317.307v-.031l1.458-1.918-.921-.521-.936 2.148h-.031l-.951-2.133-.937.537 1.443 1.872v.031l-2.257-.292v1.044l2.272-.292v.031l-1.458 1.872.874.553.999-2.164h.03l.921 2.148.967-.552-1.473-1.842v-.03l2.317.276zM114.398 17.519l1.258-1.654-.794-.451-.808 1.853h-.027l-.82-1.84-.808.464 1.245 1.615v.027l-1.947-.252v.9l1.96-.251v.026l-1.258 1.615.754.477.861-1.867h.026l.795 1.853.834-.476-1.271-1.589v-.026l1.999.238v-.9l-1.999.264v-.026z"></path></svg>